<?xml version="1.0" encoding="UTF-8"?>
<svg id="Layer_2" data-name="Layer 2" xmlns="http://www.w3.org/2000/svg" viewBox="0 0 419.28 355.79">
  <defs>
    <style>
      .cls-1 {
        fill: #fff;
        stroke-width: 0px;
      }
    </style>
  </defs>
  <g id="Layer_1-2" data-name="Layer 1">
    <path class="cls-1" d="m225.54,312.57c7.23-14.32,14.48-28.62,21.67-42.96,1.18-2.35-.37-4.32-1.37-6.28-32.24-63.38-64.51-126.74-96.73-190.12-11.16-21.94-22.08-44-33.42-65.85C112.73,1.65,113.78,0,120.06.04c25.62.16,51.23.06,76.85.06,70.63,0,141.27,0,211.9,0q12.47,0,6.8,11.47c-10.1,20.25-20.23,40.49-30.4,60.7-.95,1.88-1.24,4.82-4.07,4.7-2.23-.1-3.04-2.54-3.65-4.3-4.1-11.74-12.31-14.17-24.25-13.96-45.25.77-90.53.31-135.79.33-8.04,0-8.22.13-4.64,7.34,22.14,44.51,44.36,88.97,66.58,133.44.4.8,1.17,1.43,2.48,2.99,7.96-15.69,15.61-30.67,23.15-45.69,1.62-3.23-.78-5.71-2.23-8.22-7.48-12.91-15.06-25.76-22.54-38.66-3.62-6.24-3.15-7.2,3.86-7.22,26.36-.07,52.73.07,79.09-.1,5.98-.04,7.67,1.25,4.63,7.15-25.37,49.3-50.56,98.69-75.81,148.05-15.4,30.1-30.93,60.14-46.08,90.36-2.77,5.52-6.31,7.41-12.24,7.31-16.66-.28-33.33-.25-49.99-.03-5.72.08-8.97-2.1-11.55-7.26C115.58,235,58.82,121.59,2.11,8.16-1.45,1.04-.94.14,7.01.13c27.86-.05,55.71-.03,83.57.03,2.12,0,4.86-.87,6.12,1.49,1.26,2.34-1.1,4.06-2.08,5.98-.22.44-.48.9-.82,1.24-13.2,13.44-11.61,26.11-2.94,42.72,44.33,84.83,87.09,170.49,130.43,255.83.86,1.7,1.32,3.78,4.24,5.15Z"/>
  </g>
</svg>