<?xml version="1.0" encoding="UTF-8"?>
<svg id="Layer_2" data-name="Layer 2" xmlns="http://www.w3.org/2000/svg" viewBox="0 0 1858.95 355.79">
  <defs>
    <style>
      .cls-1 {
        fill: #fff;
        stroke-width: 0px;
      }
    </style>
  </defs>
  <g id="Layer_1-2" data-name="Layer 1">
    <path class="cls-1" d="m225.54,312.57c7.23-14.32,14.48-28.62,21.67-42.96,1.18-2.35-.37-4.32-1.37-6.28-32.24-63.38-64.51-126.74-96.73-190.12-11.16-21.94-22.08-44-33.42-65.85C112.73,1.65,113.78,0,120.06.04c25.62.16,51.23.06,76.85.06,70.63,0,141.27,0,211.9,0q12.47,0,6.8,11.47c-10.1,20.25-20.23,40.49-30.4,60.7-.95,1.88-1.24,4.82-4.07,4.7-2.23-.1-3.04-2.54-3.65-4.3-4.1-11.74-12.31-14.17-24.25-13.96-45.25.77-90.53.31-135.79.33-8.04,0-8.22.13-4.64,7.34,22.14,44.51,44.36,88.97,66.58,133.44.4.8,1.17,1.43,2.48,2.99,7.96-15.69,15.61-30.67,23.15-45.69,1.62-3.23-.78-5.71-2.23-8.22-7.48-12.91-15.06-25.76-22.54-38.66-3.62-6.24-3.15-7.2,3.86-7.22,26.36-.07,52.73.07,79.09-.1,5.98-.04,7.67,1.25,4.63,7.15-25.37,49.3-50.56,98.69-75.81,148.05-15.4,30.1-30.93,60.14-46.08,90.36-2.77,5.52-6.31,7.41-12.24,7.31-16.66-.28-33.33-.25-49.99-.03-5.72.08-8.97-2.1-11.55-7.26C115.58,235,58.82,121.59,2.11,8.16-1.45,1.04-.94.14,7.01.13c27.86-.05,55.71-.03,83.57.03,2.12,0,4.86-.87,6.12,1.49,1.26,2.34-1.1,4.06-2.08,5.98-.22.44-.48.9-.82,1.24-13.2,13.44-11.61,26.11-2.94,42.72,44.33,84.83,87.09,170.49,130.43,255.83.86,1.7,1.32,3.78,4.24,5.15Z"/>
    <g>
      <g>
        <path class="cls-1" d="m446.36,183.42h23.18l35.36,63.11,33.67-63.11h20.3l-48.05,87.31h-14.04l-50.42-87.31Z"/>
        <path class="cls-1" d="m608.95,183.42h19.63l50.08,87.31h-22.84l-10.49-19.12h-55.33l-10.15,19.12h-20.3l49.41-87.31Zm27.92,52.45l-18.78-35.53-19.46,35.53h38.24Z"/>
        <path class="cls-1" d="m706.75,183.42h20.3v70.89h65.48v16.41h-85.78v-87.31Z"/>
        <path class="cls-1" d="m906.22,198.99v55.33h63.45v-19.46h-33.16v-14.89h52.96v30.12c0,16.41-5.24,20.64-21.66,20.64h-60.23c-16.41,0-21.66-4.23-21.66-20.64v-46.02c0-16.41,5.25-20.64,21.66-20.64h60.23c15.9,0,21.66,4.06,21.66,19.8v2.03l-19.8,3.55v-9.81h-63.45Z"/>
        <path class="cls-1" d="m1032.44,183.42h74.79c13.37,0,19.63,4.74,19.63,16.92v20.47c0,12.18-6.26,16.92-19.63,16.92h-11.51l40.27,32.99h-29.1l-35.19-32.99h-19.29v32.99h-19.97v-87.31Zm19.97,15.06v24.36h45.68c6.26,0,9.14-1.18,9.14-6.94v-10.49c0-5.75-2.88-6.94-9.14-6.94h-45.68Z"/>
        <path class="cls-1" d="m1194.53,183.42h19.63l50.08,87.31h-22.84l-10.49-19.12h-55.33l-10.15,19.12h-20.3l49.41-87.31Zm27.92,52.45l-18.78-35.53-19.46,35.53h38.24Z"/>
        <path class="cls-1" d="m1292.32,183.42h74.79c13.37,0,19.63,4.74,19.63,16.92v19.46c0,12.18-6.26,16.92-19.63,16.92h-54.82v34.01h-19.97v-87.31Zm19.97,15.06v23.18h45.68c6.26,0,9.14-1.18,9.14-6.94v-9.31c0-5.75-2.88-6.94-9.14-6.94h-45.68Z"/>
        <path class="cls-1" d="m1418.03,183.42h20.3v33.84h63.45v-33.84h20.47v87.31h-20.47v-37.56h-63.45v37.56h-20.3v-87.31Z"/>
        <path class="cls-1" d="m1566.92,183.42h20.3v87.31h-20.3v-87.31Z"/>
        <path class="cls-1" d="m1650.34,198.99v55.33h54.82v-18.78l20.3,4.23v10.32c0,16.41-5.24,20.64-21.66,20.64h-52.11c-16.41,0-21.66-4.23-21.66-20.64v-46.02c0-16.41,5.25-20.64,21.66-20.64h52.11c16.41,0,21.66,4.23,21.66,20.64v8.29l-20.3,3.21v-16.58h-54.82Z"/>
        <path class="cls-1" d="m1782.64,198.65v18.78h54.48c16.41,0,21.83,4.23,21.83,20.64v12.01c0,16.41-5.41,20.64-21.83,20.64h-53.97c-16.41,0-21.83-4.23-21.83-20.64v-2.37l17.93-3.72v10.32h61.76v-19.97h-54.48c-16.41,0-21.66-4.23-21.66-20.64v-9.64c0-16.41,5.24-20.64,21.66-20.64h49.57c15.57,0,21.66,4.06,21.66,19.12v1.86l-17.93,4.23v-9.98h-57.19Z"/>
      </g>
      <g>
        <path class="cls-1" d="m451.34,316.56h14.81c3.71,0,4.98.77,4.98,4.53v10.05c0,3.58-1.22,4.53-4.98,4.53h-2.26l2.58,4.94h-4.66l-2.17-4.94h-8.29c-3.8,0-4.98-.95-4.98-4.53v-10.05c0-3.71,1.27-4.53,4.98-4.53Zm6.7,15.49l-1.99-4.12,3.35-1.27,2.63,5.39h4.44v-11.96h-15.44v11.96h7.02Z"/>
        <path class="cls-1" d="m483.85,332.14h13.31v-15.58h4.71v14.63c0,3.58-1.22,4.53-5.03,4.53h-12.68c-3.8,0-4.98-.95-4.98-4.53v-14.63h4.66v15.58Z"/>
        <path class="cls-1" d="m518,316.56h4.48l11.55,19.16h-5.25l-2.4-4.21h-12.68l-2.4,4.21h-4.66l11.37-19.16Zm6.48,11.46l-4.48-7.97-4.3,7.97h8.79Z"/>
        <path class="cls-1" d="m538.79,316.56h4.71v15.58h15.04v3.58h-19.74v-19.16Z"/>
        <path class="cls-1" d="m563.78,316.56h4.66v19.16h-4.66v-19.16Z"/>
        <path class="cls-1" d="m588.38,335.72h-4.66v-15.71h-9.24v-3.44h23.19v3.44h-9.28v15.71Z"/>
        <path class="cls-1" d="m610.93,327.11l-10.46-10.55h6.29l6.84,7.16,6.93-7.16h5.48l-10.42,10.46v8.69h-4.66v-8.6Z"/>
        <path class="cls-1" d="m656.8,346.4h-3.31v-45.29h3.31v45.29Z"/>
        <path class="cls-1" d="m688.23,316.56h20.56v3.4h-15.85v4.17h9.24v3.31h-9.24v4.71h16.08v3.58h-20.79v-19.16Z"/>
        <path class="cls-1" d="m723.01,327.11l-10.46-10.55h6.29l6.84,7.16,6.93-7.16h5.48l-10.42,10.46v8.69h-4.66v-8.6Z"/>
        <path class="cls-1" d="m742.62,316.56h20.56v3.4h-15.85v4.17h9.24v3.31h-9.24v4.71h16.08v3.58h-20.79v-19.16Z"/>
        <path class="cls-1" d="m785.6,321.31h10.55v4.66h-10.55v-4.66Z"/>
        <path class="cls-1" d="m824.36,320.09v11.96h12.59v-4.08l4.71.95v2.26c0,3.58-1.22,4.53-5.03,4.53h-11.96c-3.85,0-4.98-1-4.98-4.53v-10.1c0-3.58,1.18-4.53,4.98-4.53h11.96c3.8,0,5.03.91,5.03,4.53v1.86l-4.71.68v-3.53h-12.59Z"/>
        <path class="cls-1" d="m856.92,316.56h4.48l11.55,19.16h-5.25l-2.4-4.21h-12.68l-2.4,4.21h-4.66l11.37-19.16Zm6.48,11.46l-4.48-7.97-4.3,7.97h8.79Z"/>
        <path class="cls-1" d="m886.59,335.72h-4.66v-15.71h-9.24v-3.44h23.19v3.44h-9.28v15.71Z"/>
        <path class="cls-1" d="m904.43,320.09v11.96h12.59v-4.08l4.71.95v2.26c0,3.58-1.22,4.53-5.03,4.53h-11.96c-3.85,0-4.98-1-4.98-4.53v-10.1c0-3.58,1.18-4.53,4.98-4.53h11.96c3.8,0,5.03.91,5.03,4.53v1.86l-4.71.68v-3.53h-12.59Z"/>
        <path class="cls-1" d="m929.38,316.56h4.71v7.29h14.58v-7.29h4.66v19.16h-4.66v-8.06h-14.58v8.06h-4.71v-19.16Z"/>
        <path class="cls-1" d="m961.9,316.56h4.66v19.16h-4.66v-19.16Z"/>
        <path class="cls-1" d="m975.08,316.56h3.22l16.26,12.73v-12.73h4.21v19.16h-3.22l-16.21-12.91v12.91h-4.26v-19.16Z"/>
        <path class="cls-1" d="m1011.53,320.09v11.96h14.58v-4.08h-7.61v-3.4h12.18v6.61c0,3.58-1.18,4.53-4.98,4.53h-13.86c-3.8,0-4.98-.95-4.98-4.53v-10.1c0-3.62,1.22-4.53,4.98-4.53h13.86c3.62,0,4.98.86,4.98,4.3v.5l-4.57.77v-2.04h-14.58Z"/>
        <path class="cls-1" d="m1064.93,346.4h-3.31v-45.29h3.31v45.29Z"/>
        <path class="cls-1" d="m1100.57,320.09v11.96h12.59v-4.08l4.71.95v2.26c0,3.58-1.22,4.53-5.03,4.53h-11.96c-3.85,0-4.98-1-4.98-4.53v-10.1c0-3.58,1.18-4.53,4.98-4.53h11.96c3.8,0,5.03.91,5.03,4.53v1.86l-4.71.68v-3.53h-12.59Z"/>
        <path class="cls-1" d="m1125.52,316.56h17.25c3.08,0,4.48,1.04,4.48,3.71v4.53c0,2.63-1.4,3.67-4.48,3.67h-2.63l9.1,7.25h-6.7l-8.02-7.25h-4.39v7.25h-4.62v-19.16Zm4.62,3.31v5.3h10.64c1.4,0,2.13-.27,2.13-1.54v-2.22c0-1.27-.72-1.54-2.13-1.54h-10.64Z"/>
        <path class="cls-1" d="m1154.96,316.56h20.56v3.4h-15.85v4.17h9.24v3.31h-9.24v4.71h16.08v3.58h-20.79v-19.16Z"/>
        <path class="cls-1" d="m1190.96,316.56h4.48l11.55,19.16h-5.25l-2.4-4.21h-12.68l-2.4,4.21h-4.66l11.37-19.16Zm6.48,11.46l-4.48-7.97-4.3,7.97h8.79Z"/>
        <path class="cls-1" d="m1220.62,335.72h-4.66v-15.71h-9.24v-3.44h23.19v3.44h-9.28v15.71Z"/>
        <path class="cls-1" d="m1235.93,316.56h4.66v19.16h-4.66v-19.16Z"/>
        <path class="cls-1" d="m1246.48,316.56h5.3l8.11,13.9,7.65-13.9h4.85l-11.1,19.16h-3.22l-11.59-19.16Z"/>
        <path class="cls-1" d="m1277.73,316.56h4.66v19.16h-4.66v-19.16Z"/>
        <path class="cls-1" d="m1302.32,335.72h-4.66v-15.71h-9.24v-3.44h23.19v3.44h-9.28v15.71Z"/>
        <path class="cls-1" d="m1324.87,327.11l-10.46-10.55h6.29l6.84,7.16,6.93-7.16h5.48l-10.42,10.46v8.69h-4.66v-8.6Z"/>
        <path class="cls-1" d="m1370.75,346.4h-3.31v-45.29h3.31v45.29Z"/>
        <path class="cls-1" d="m1424.23,320v4.03h12.45c3.8,0,4.98.91,4.98,4.53v2.63c0,3.58-1.18,4.53-4.98,4.53h-12.45c-3.8,0-5.03-.95-5.03-4.53v-.54l4.17-.77v2.26h14.08v-4.39h-12.41c-3.76,0-5.03-.91-5.03-4.53v-2.13c0-3.62,1.27-4.53,5.03-4.53h11.37c3.53,0,5.03.82,5.03,4.17v.45l-4.03.86v-2.04h-13.18Z"/>
        <path class="cls-1" d="m1449.73,316.56h4.71v7.74l11.19-7.74h6.75l-13.22,8.88,14.72,10.28h-7.38l-12.05-8.65v8.65h-4.71v-19.16Z"/>
        <path class="cls-1" d="m1477.8,316.56h4.66v19.16h-4.66v-19.16Z"/>
        <path class="cls-1" d="m1490.98,316.56h4.71v15.58h15.04v3.58h-19.74v-19.16Z"/>
        <path class="cls-1" d="m1515.98,316.56h4.71v15.58h15.04v3.58h-19.74v-19.16Z"/>
        <path class="cls-1" d="m1567.24,346.4h-3.31v-45.29h3.31v45.29Z"/>
        <path class="cls-1" d="m1598.67,316.56h4.66v19.16h-4.66v-19.16Z"/>
        <path class="cls-1" d="m1611.85,316.56h3.22l16.26,12.73v-12.73h4.21v19.16h-3.22l-16.21-12.91v12.91h-4.26v-19.16Z"/>
        <path class="cls-1" d="m1644.09,316.56h3.22l16.26,12.73v-12.73h4.21v19.16h-3.22l-16.21-12.91v12.91h-4.26v-19.16Z"/>
        <path class="cls-1" d="m1680.87,316.56h14.81c3.76,0,4.98.86,4.98,4.53v10.1c0,3.62-1.22,4.53-4.98,4.53h-14.81c-3.8,0-4.98-.91-4.98-4.53v-10.1c0-3.67,1.22-4.53,4.98-4.53Zm15.13,15.49v-11.96h-15.44v11.96h15.44Z"/>
        <path class="cls-1" d="m1706.09,316.56h5.3l8.11,13.9,7.65-13.9h4.85l-11.1,19.16h-3.22l-11.59-19.16Z"/>
        <path class="cls-1" d="m1744.13,316.56h4.48l11.55,19.16h-5.25l-2.4-4.21h-12.68l-2.4,4.21h-4.66l11.37-19.16Zm6.48,11.46l-4.48-7.97-4.3,7.97h8.79Z"/>
        <path class="cls-1" d="m1773.8,335.72h-4.66v-15.71h-9.24v-3.44h23.19v3.44h-9.28v15.71Z"/>
        <path class="cls-1" d="m1789.1,316.56h4.66v19.16h-4.66v-19.16Z"/>
        <path class="cls-1" d="m1806.81,316.56h14.81c3.76,0,4.98.86,4.98,4.53v10.1c0,3.62-1.22,4.53-4.98,4.53h-14.81c-3.8,0-4.98-.91-4.98-4.53v-10.1c0-3.67,1.22-4.53,4.98-4.53Zm15.13,15.49v-11.96h-15.44v11.96h15.44Z"/>
        <path class="cls-1" d="m1834.66,316.56h3.22l16.26,12.73v-12.73h4.21v19.16h-3.22l-16.21-12.91v12.91h-4.26v-19.16Z"/>
      </g>
      <g>
        <path class="cls-1" d="m1015.76,141.67c-6.96,0-12.22,4.34-12.22,11.03,0,7.49,5.78,11.17,12.22,11.17s12.35-3.68,12.35-11.17c0-6.7-5.25-11.03-12.35-11.03Z"/>
        <path class="cls-1" d="m985.15,141.67c-6.96,0-12.35,4.34-12.35,11.03,0,7.49,5.78,11.17,12.35,11.17s12.35-3.68,12.35-11.17c0-6.7-5.39-11.03-12.35-11.03Z"/>
        <path class="cls-1" d="m1153.56,97.53c0,5.52,1.45,10.25,3.81,14.32h-142.8v-52.15h-23.65v52.15h-145.29v-8.28c0-10.77-2.5-21.68-8.41-28.38-6.83-7.62-16.55-10.25-30.08-10.25h-35.08l22.2-35.99h-28.9l-19.18,36.13c.26,9.98,3.68,18.13,7.62,23.51h54.78c4.73,0,8.14,1.18,10.51,3.81,2.23,2.5,2.89,5.65,2.89,9.33v10.12h-182.6c-6.04,0-10.9-1.05-14.58-3.42.53-3.81.79-7.88.79-12.48v-42.83h-23.65v45.72c0,9.2-3.55,14.58-12.61,14.58-8.14,0-13.79-4.34-14.06-17.34v-29.82h-23.65v29.82c0,11.03-6.44,15.76-17.34,15.76h-8.54v-52.15h-23.65v68.57h-7.75c-6.83,0-13.01-1.31-17.08-5.25-3.42-3.28-5.39-7.88-5.39-15.11v-39.8h-23.65v42.96c0,12.09,3.02,23.25,10.25,30.21,7.88,7.49,18.92,10.64,33.76,10.64h33.5v-16.42h9.06c10.12,0,20.23-3.94,27.72-10.77,5.78,8.14,14.84,12.09,26.93,12.09,14.58,0,23.91-3.94,29.43-11.82,3.94,4.84,9.71,9.09,16.81,10.22v.29h587.21V59.57h-24.04c-29.16,0-45.32,15.63-45.32,37.97Zm45.72,14.32h-15.24c-4.34-3.42-6.83-8.28-6.83-14.32,0-8.67,7.09-14.32,15.63-14.32h6.44v28.64Z"/>
        <path class="cls-1" d="m1193.76,50.9c6.83,0,13.01-3.81,13.01-11.69,0-6.96-5.52-11.56-13.01-11.56s-13.01,4.6-13.01,11.56c0,7.88,6.17,11.69,13.01,11.69Z"/>
        <rect class="cls-1" x="1243.15" y="28.96" width="23.65" height="106.54"/>
        <path class="cls-1" d="m1476.72,56.15c-11.04,0-21.54,3.68-30.21,8.54l8.54,21.41c7.49-4.99,12.48-6.44,19.44-6.44,5.78,0,10.77,1.71,14.06,4.86,3.68,3.28,5.12,7.75,5.12,12.87,0,7.09-.66,11.03-1.84,14.45h-171.17l-.13.39v-52.55h-23.65v68.97c0,8.14-3.81,12.09-9.85,12.09-3.15,0-5.25-.26-9.2-1.18l2.76,23.51c2.36.66,5.78,1.31,8.93,1.31,21.41,0,29.03-8.8,30.61-28.9h190.22c2.63-7.36,6.96-23.65,6.96-36.39,0-13.53-5.39-24.17-12.22-31.66-6.7-7.09-16.16-11.3-28.38-11.3Z"/>
        <path class="cls-1" d="m1474.49,140.49c-7.36,0-13.01,4.6-13.01,11.56,0,7.88,6.17,11.82,13.01,11.82s13.01-3.94,13.01-11.82c0-6.96-5.52-11.56-13.01-11.56Z"/>
        <path class="cls-1" d="m1621.75,128.27h-7.88c-6.83,0-13.01-1.31-17.08-5.25-3.42-3.28-5.39-7.88-5.39-15.11v-39.8h-23.65v42.96c0,12.09,3.02,23.25,10.25,30.21,7.88,7.49,18.92,10.64,33.76,10.64h33.5V28.96h-23.52v99.31Z"/>
        <path class="cls-1" d="m1823.93,39.07c0,7.23,5.65,10.77,11.82,10.77s11.82-3.55,11.82-10.77c0-6.44-4.99-10.64-11.82-10.64s-11.82,4.2-11.82,10.64Z"/>
        <path class="cls-1" d="m1820.91,27.65c5.39,0,10.25-3.02,10.25-9.33,0-5.25-4.34-8.93-10.25-8.93s-10.25,3.68-10.25,8.93c0,6.31,4.99,9.33,10.25,9.33Z"/>
        <path class="cls-1" d="m1825.77,59.57c-29.16,0-45.32,15.63-45.32,37.97,0,5.52,1.44,10.25,3.81,14.32h-92.09V28.96h-23.65v106.54h181.29V59.57h-24.04Zm.39,52.28h-15.24c-4.34-3.42-6.83-8.28-6.83-14.32,0-8.67,7.09-14.32,15.63-14.32h6.44v28.64Z"/>
        <path class="cls-1" d="m1806.06,49.85c6.31,0,11.82-3.55,11.82-10.77,0-6.44-4.99-10.64-11.82-10.64s-11.82,4.2-11.82,10.64c0,7.23,5.65,10.77,11.82,10.77Z"/>
      </g>
    </g>
  </g>
</svg>